<?xml version="1.0" encoding="utf-8"?>
<svg version="1.1" xmlns="http://www.w3.org/2000/svg" xmlns:xlink="http://www.w3.org/1999/xlink" x="0px" y="0px"
	 viewBox="0 0 100 15" width="100" height="15" xml:space="preserve">
<g>
	<path d="M4.9,10.8L3.2,4.6H3.1C3.2,5.7,3.2,6.5,3.2,7v3.7H1.2V2.2h3.1l1.8,6.1h0l1.8-6.1h3.1v8.6H8.8V7c0-0.2,0-0.4,0-0.7
		s0-0.8,0.1-1.8H8.9l-1.7,6.2H4.9z"/>
	<path d="M19,7.4c0,1.1-0.3,1.9-0.9,2.5s-1.4,0.9-2.5,0.9c-1,0-1.8-0.3-2.4-0.9s-0.9-1.5-0.9-2.5c0-1.1,0.3-1.9,0.9-2.5
		S14.6,4,15.7,4c0.7,0,1.2,0.1,1.7,0.4s0.9,0.7,1.2,1.2S19,6.7,19,7.4z M14.7,7.4c0,0.6,0.1,1,0.2,1.3s0.4,0.4,0.8,0.4
		c0.4,0,0.6-0.1,0.8-0.4s0.2-0.7,0.2-1.3c0-0.6-0.1-1-0.2-1.3S16,5.7,15.7,5.7c-0.4,0-0.6,0.1-0.8,0.4S14.7,6.9,14.7,7.4z"/>
	<path d="M26.6,7.4c0,1.1-0.3,1.9-0.9,2.5s-1.4,0.9-2.5,0.9c-1,0-1.8-0.3-2.4-0.9S20,8.5,20,7.4c0-1.1,0.3-1.9,0.9-2.5
		S22.3,4,23.3,4c0.7,0,1.2,0.1,1.7,0.4s0.9,0.7,1.2,1.2S26.6,6.7,26.6,7.4z M22.3,7.4c0,0.6,0.1,1,0.2,1.3s0.4,0.4,0.8,0.4
		c0.4,0,0.6-0.1,0.8-0.4s0.2-0.7,0.2-1.3c0-0.6-0.1-1-0.2-1.3s-0.4-0.4-0.8-0.4c-0.4,0-0.6,0.1-0.8,0.4S22.3,6.9,22.3,7.4z"/>
	<path d="M30,10.9c-0.5,0-0.9-0.1-1.2-0.4S28.1,9.8,28,9.3s-0.3-1.1-0.3-1.8c0-1.1,0.2-1.9,0.7-2.5s1-0.9,1.8-0.9
		c0.4,0,0.7,0.1,1,0.2s0.5,0.4,0.8,0.8h0c-0.1-0.5-0.1-1-0.1-1.6V1.7h2.3v9.1h-1.7l-0.5-0.8h-0.1C31.4,10.6,30.8,10.9,30,10.9z
		 M30.9,9.1c0.4,0,0.6-0.1,0.8-0.3S32,8.1,32,7.7V7.5c0-0.6-0.1-1-0.3-1.3s-0.4-0.4-0.8-0.4c-0.3,0-0.5,0.1-0.7,0.4S30,7,30,7.5
		c0,0.5,0.1,0.9,0.3,1.2S30.6,9.1,30.9,9.1z"/>
	<path d="M34.9,4.1h2.4l1.1,3.8c0.1,0.2,0.1,0.4,0.1,0.7h0c0-0.3,0.1-0.5,0.1-0.7l1.2-3.8h2.3l-2.6,7.1c-0.3,0.9-0.7,1.5-1.2,1.9
		s-1.1,0.6-1.9,0.6c-0.3,0-0.6,0-0.9-0.1v-1.8c0.2,0,0.4,0.1,0.7,0.1c0.2,0,0.4,0,0.5-0.1s0.3-0.2,0.4-0.3s0.2-0.4,0.4-0.7L34.9,4.1
		z"/>
	<path d="M46.6,5.8h3.7v4.6c-1,0.3-2.1,0.5-3.3,0.5c-1.3,0-2.3-0.4-3.1-1.1s-1.1-1.9-1.1-3.3c0-1.4,0.4-2.5,1.2-3.2s1.9-1.2,3.3-1.2
		c0.5,0,1,0.1,1.5,0.2s0.9,0.2,1.3,0.4l-0.7,1.8c-0.6-0.3-1.3-0.5-2-0.5c-0.7,0-1.2,0.2-1.6,0.7s-0.6,1.1-0.6,1.9
		c0,0.8,0.2,1.4,0.5,1.8S46.5,9,47.1,9c0.3,0,0.7,0,0.9-0.1V7.5h-1.5V5.8z"/>
	<path d="M58.2,7.4c0,1.1-0.3,1.9-0.9,2.5s-1.4,0.9-2.5,0.9c-1,0-1.8-0.3-2.4-0.9s-0.9-1.5-0.9-2.5c0-1.1,0.3-1.9,0.9-2.5
		S53.9,4,54.9,4c0.7,0,1.2,0.1,1.7,0.4s0.9,0.7,1.2,1.2S58.2,6.7,58.2,7.4z M53.9,7.4c0,0.6,0.1,1,0.2,1.3s0.4,0.4,0.8,0.4
		c0.4,0,0.6-0.1,0.8-0.4s0.2-0.7,0.2-1.3c0-0.6-0.1-1-0.2-1.3s-0.4-0.4-0.8-0.4c-0.4,0-0.6,0.1-0.8,0.4S53.9,6.9,53.9,7.4z"/>
	<path d="M65.9,7.4c0,1.1-0.3,1.9-0.9,2.5s-1.4,0.9-2.5,0.9c-1,0-1.8-0.3-2.4-0.9s-0.9-1.5-0.9-2.5c0-1.1,0.3-1.9,0.9-2.5
		S61.5,4,62.6,4c0.7,0,1.2,0.1,1.7,0.4s0.9,0.7,1.2,1.2S65.9,6.7,65.9,7.4z M61.6,7.4c0,0.6,0.1,1,0.2,1.3s0.4,0.4,0.8,0.4
		c0.4,0,0.6-0.1,0.8-0.4s0.2-0.7,0.2-1.3c0-0.6-0.1-1-0.2-1.3s-0.4-0.4-0.8-0.4c-0.4,0-0.6,0.1-0.8,0.4S61.6,6.9,61.6,7.4z"/>
	<path d="M69.2,10.9c-0.5,0-0.9-0.1-1.2-0.4s-0.6-0.7-0.8-1.2s-0.3-1.1-0.3-1.8c0-1.1,0.2-1.9,0.7-2.5s1-0.9,1.8-0.9
		c0.4,0,0.7,0.1,1,0.2S70.8,4.6,71,5h0C71,4.5,71,3.9,71,3.4V1.7h2.3v9.1h-1.7l-0.5-0.8H71C70.6,10.6,70,10.9,69.2,10.9z M70.2,9.1
		c0.4,0,0.6-0.1,0.8-0.3s0.2-0.6,0.2-1.1V7.5c0-0.6-0.1-1-0.3-1.3s-0.4-0.4-0.8-0.4c-0.3,0-0.5,0.1-0.7,0.4S69.2,7,69.2,7.5
		c0,0.5,0.1,0.9,0.3,1.2S69.8,9.1,70.2,9.1z"/>
	<path d="M74.1,4.1h2.4l1.1,3.8c0.1,0.2,0.1,0.4,0.1,0.7h0c0-0.3,0.1-0.5,0.1-0.7l1.2-3.8h2.3l-2.6,7.1c-0.3,0.9-0.7,1.5-1.2,1.9
		s-1.1,0.6-1.9,0.6c-0.3,0-0.6,0-0.9-0.1v-1.8c0.2,0,0.4,0.1,0.7,0.1c0.2,0,0.4,0,0.5-0.1s0.3-0.2,0.4-0.3s0.2-0.4,0.4-0.7L74.1,4.1
		z"/>
	<path class="me-app-svg-path" fill="#828a90" d="M86.2,10.8l-2.5-7.2h0c0.1,1.1,0.1,2.1,0.1,3v4.2h-1.3V2.2h2L86.9,9h0l2.4-6.8h2v8.6H90V6.5c0-0.4,0-1,0-1.7
		s0-1.1,0.1-1.2h0l-2.6,7.1H86.2z"/>
	<path class="me-app-svg-path" fill="#828a90" d="M96.3,10.9c-1,0-1.8-0.3-2.4-0.9s-0.9-1.4-0.9-2.4c0-1.1,0.3-1.9,0.8-2.5s1.3-0.9,2.2-0.9c0.9,0,1.5,0.3,2,0.8
		s0.7,1.2,0.7,2.1v0.7h-4.3c0,0.6,0.2,1.1,0.5,1.5s0.8,0.5,1.4,0.5c0.4,0,0.7,0,1.1-0.1s0.7-0.2,1.1-0.4v1.1c-0.3,0.2-0.7,0.3-1,0.3
		S96.7,10.9,96.3,10.9z M96,5.2c-0.4,0-0.8,0.1-1.1,0.4s-0.4,0.7-0.5,1.2h2.9c0-0.5-0.1-0.9-0.4-1.2S96.5,5.2,96,5.2z"/>
</g>
</svg>
